<?xml version="1.0" encoding="UTF-8" standalone="no"?>
<!-- Created with Inkscape (http://www.inkscape.org/) -->

<svg
   xmlns:dc="http://purl.org/dc/elements/1.1/"
   xmlns:cc="http://creativecommons.org/ns#"
   xmlns:rdf="http://www.w3.org/1999/02/22-rdf-syntax-ns#"
   xmlns:svg="http://www.w3.org/2000/svg"
   xmlns="http://www.w3.org/2000/svg"
   xmlns:sodipodi="http://sodipodi.sourceforge.net/DTD/sodipodi-0.dtd"
   xmlns:inkscape="http://www.inkscape.org/namespaces/inkscape"
   width="110mm"
   height="100mm"
   viewBox="0 0 210 297"
   version="1.1"
   id="svg8"
   inkscape:version="0.92.2 (5c3e80d, 2017-08-06)"
   sodipodi:docname="easy-pipe.svg">
  <defs
     id="defs2">
    <inkscape:path-effect
       effect="bspline"
       id="path-effect5080"
       is_visible="true"
       weight="33.333333"
       steps="2"
       helper_size="0"
       apply_no_weight="true"
       apply_with_weight="true"
       only_selected="false" />
    <inkscape:path-effect
       effect="bspline"
       id="path-effect5076"
       is_visible="true"
       weight="33.333333"
       steps="2"
       helper_size="0"
       apply_no_weight="true"
       apply_with_weight="true"
       only_selected="false" />
    <inkscape:path-effect
       effect="bspline"
       id="path-effect5072"
       is_visible="true"
       weight="33.333333"
       steps="2"
       helper_size="0"
       apply_no_weight="true"
       apply_with_weight="true"
       only_selected="false" />
    <inkscape:path-effect
       effect="bspline"
       id="path-effect5068"
       is_visible="true"
       weight="33.333333"
       steps="2"
       helper_size="0"
       apply_no_weight="true"
       apply_with_weight="true"
       only_selected="false" />
    <inkscape:path-effect
       effect="bspline"
       id="path-effect5064"
       is_visible="true"
       weight="33.333333"
       steps="2"
       helper_size="0"
       apply_no_weight="true"
       apply_with_weight="true"
       only_selected="false" />
    <inkscape:path-effect
       effect="bspline"
       id="path-effect5060"
       is_visible="true"
       weight="33.333333"
       steps="2"
       helper_size="0"
       apply_no_weight="true"
       apply_with_weight="true"
       only_selected="false" />
    <inkscape:path-effect
       effect="bspline"
       id="path-effect5056"
       is_visible="true"
       weight="33.333333"
       steps="2"
       helper_size="0"
       apply_no_weight="true"
       apply_with_weight="true"
       only_selected="false" />
    <marker
       inkscape:stockid="DiamondS"
       orient="auto"
       refY="0"
       refX="0"
       id="DiamondS"
       style="overflow:visible"
       inkscape:isstock="true">
      <path
         id="path4599"
         d="M 0,-7.0710768 -7.0710894,0 0,7.0710589 7.0710462,0 Z"
         style="fill:#000000;fill-opacity:1;fill-rule:evenodd;stroke:#000000;stroke-width:1.00000003pt;stroke-opacity:1"
         transform="scale(0.2)"
         inkscape:connector-curvature="0" />
    </marker>
    <marker
       inkscape:stockid="EmptyDiamondS"
       orient="auto"
       refY="0"
       refX="0"
       id="EmptyDiamondS"
       style="overflow:visible"
       inkscape:isstock="true">
      <path
         id="path4626"
         d="M 0,-7.0710768 -7.0710894,0 0,7.0710589 7.0710462,0 Z"
         style="fill:#ffffff;fill-rule:evenodd;stroke:#000000;stroke-width:1.00000003pt;stroke-opacity:1"
         transform="scale(0.2)"
         inkscape:connector-curvature="0" />
    </marker>
    <marker
       inkscape:stockid="TriangleOutS"
       orient="auto"
       refY="0"
       refX="0"
       id="TriangleOutS"
       style="overflow:visible"
       inkscape:isstock="true">
      <path
         id="path4662"
         d="M 5.77,0 -2.88,5 V -5 Z"
         style="fill:#000000;fill-opacity:1;fill-rule:evenodd;stroke:#000000;stroke-width:1.00000003pt;stroke-opacity:1"
         transform="scale(0.2)"
         inkscape:connector-curvature="0" />
    </marker>
    <marker
       inkscape:stockid="Arrow2Send"
       orient="auto"
       refY="0"
       refX="0"
       id="Arrow2Send"
       style="overflow:visible"
       inkscape:isstock="true">
      <path
         id="path4547"
         style="fill:#000000;fill-opacity:1;fill-rule:evenodd;stroke:#000000;stroke-width:0.625;stroke-linejoin:round;stroke-opacity:1"
         d="M 8.7185878,4.0337352 -2.2072895,0.01601326 8.7185884,-4.0017078 c -1.7454984,2.3720609 -1.7354408,5.6174519 -6e-7,8.035443 z"
         transform="matrix(-0.3,0,0,-0.3,0.69,0)"
         inkscape:connector-curvature="0" />
    </marker>
    <marker
       inkscape:stockid="Arrow1Sstart"
       orient="auto"
       refY="0"
       refX="0"
       id="Arrow1Sstart"
       style="overflow:visible"
       inkscape:isstock="true">
      <path
         id="path4526"
         d="M 0,0 5,-5 -12.5,0 5,5 Z"
         style="fill:#000000;fill-opacity:1;fill-rule:evenodd;stroke:#000000;stroke-width:1.00000003pt;stroke-opacity:1"
         transform="matrix(0.2,0,0,0.2,1.2,0)"
         inkscape:connector-curvature="0" />
    </marker>
    <marker
       inkscape:stockid="Arrow1Send"
       orient="auto"
       refY="0"
       refX="0"
       id="Arrow1Send"
       style="overflow:visible"
       inkscape:isstock="true">
      <path
         id="path4529"
         d="M 0,0 5,-5 -12.5,0 5,5 Z"
         style="fill:#000000;fill-opacity:1;fill-rule:evenodd;stroke:#000000;stroke-width:1.00000003pt;stroke-opacity:1"
         transform="matrix(-0.2,0,0,-0.2,-1.2,0)"
         inkscape:connector-curvature="0" />
    </marker>
    <marker
       inkscape:stockid="Arrow1Lstart"
       orient="auto"
       refY="0"
       refX="0"
       id="Arrow1Lstart"
       style="overflow:visible"
       inkscape:isstock="true">
      <path
         id="path4514"
         d="M 0,0 5,-5 -12.5,0 5,5 Z"
         style="fill:#000000;fill-opacity:1;fill-rule:evenodd;stroke:#000000;stroke-width:1.00000003pt;stroke-opacity:1"
         transform="matrix(0.8,0,0,0.8,10,0)"
         inkscape:connector-curvature="0" />
    </marker>
    <inkscape:path-effect
       effect="bspline"
       id="path-effect3707"
       is_visible="true"
       weight="33.333333"
       steps="2"
       helper_size="0"
       apply_no_weight="true"
       apply_with_weight="true"
       only_selected="false" />
    <inkscape:path-effect
       effect="spiro"
       id="path-effect3703"
       is_visible="true" />
  </defs>
  <sodipodi:namedview
     id="base"
     pagecolor="#ffffff"
     bordercolor="#666666"
     borderopacity="1.0"
     inkscape:pageopacity="0.0"
     inkscape:pageshadow="2"
     inkscape:zoom="2.8284271"
     inkscape:cx="113.13728"
     inkscape:cy="225.06739"
     inkscape:document-units="mm"
     inkscape:current-layer="layer1"
     showgrid="false"
     inkscape:snap-bbox="false"
     inkscape:snap-global="false"
     showguides="true"
     inkscape:window-width="3738"
     inkscape:window-height="2049"
     inkscape:window-x="102"
     inkscape:window-y="55"
     inkscape:window-maximized="1" />
  <metadata
     id="metadata5">
    <rdf:RDF>
      <cc:Work
         rdf:about="">
        <dc:format>image/svg+xml</dc:format>
        <dc:type
           rdf:resource="http://purl.org/dc/dcmitype/StillImage" />
        <dc:title></dc:title>
      </cc:Work>
    </rdf:RDF>
  </metadata>
  <g
     inkscape:label="Layer 1"
     inkscape:groupmode="layer"
     id="layer1"
     transform="matrix(2.9693161,0,0,2.9706134,-58.315037,-585.2378)"
     style="stroke:#000000;stroke-width:10.00011826;stroke-miterlimit:4;stroke-dasharray:none;stroke-opacity:1">
    <path
       style="fill:#112b00;fill-opacity:1;stroke:none;stroke-width:10.00011921;stroke-linejoin:round;stroke-miterlimit:4;stroke-dasharray:none;stroke-opacity:1"
       d="m 12.746722,296.9329 c -2.480644,-0.0749 -2.9816003,-0.11712 -4.4967705,-0.37908 -3.2576746,-0.56324 -5.5109949,-2.06794 -6.8577291,-4.57939 -0.76951588,-1.43503 -1.16424426,-3.07962 -1.32853621,-5.53522 -0.14169906,-2.1179 -0.06703558,-25.05619 0.08518186,-26.16976 0.26029812,-1.90425 0.63039933,-3.22515 1.24289555,-4.43592 0.5332606,-1.05414 0.8557525,-1.49458 1.7167849,-2.34464 1.6202753,-1.59964 4.0357682,-2.6002 6.8311972,-2.82967 0.5146123,-0.0422 9.8302653,-0.0612 20.7014523,-0.0421 l 19.76579,0.0346 -5.426821,4.95616 5.426821,4.95616 -19.999707,-0.0181 c -10.999838,-0.01 -20.0701,0.0112 -20.156139,0.047 -0.116061,0.0483 -0.176429,0.25029 -0.233914,0.78271 -0.086669,0.8027 -0.1086998,25.31471 -0.022828,25.40052 0.030058,0.03 0.514262,0.10718 1.076007,0.17144 1.268218,0.14507 41.073127,0.16276 42.283906,0.0188 l 0.748528,-0.089 0.06679,-0.46762 c 0.180101,-1.26086 0.253044,-13.50443 0.257149,-43.1618 0.0028,-20.48761 0.03928,-33.15673 0.0986,-34.27692 0.154568,-2.91872 0.435062,-4.57466 1.040941,-6.14539 0.843731,-2.18735 2.80199,-4.0105 5.179689,-4.82232 2.693679,-0.9197 4.419493,-0.98741 23.705484,-0.92996 14.755117,0.044 15.25603,0.0568 17.328076,0.44262 4.4075,0.82079 6.98817,3.49354 7.71652,7.99184 0.31628,1.95328 0.33703,3.55186 0.30356,23.38404 -0.0299,17.72723 -0.0483,19.73837 -0.18848,20.64751 -0.48045,3.11549 -1.46604,5.21353 -3.26698,6.95446 -1.88861,1.82568 -4.4928,3.43234 -8.405741,4.09936 -4.952995,0.84432 -11.366855,0.70177 -22.993816,0.70394 l -3.391766,-2.52412 -2.806975,-2.41951 2.947324,-2.32599 3.064284,-2.43661 c 0.153092,-0.12174 12.980979,-0.0371 16.724899,-0.25644 3.474372,-0.20354 5.992121,-1.08716 7.448519,-1.68793 0.672776,-0.27752 0.722873,-0.38371 0.881625,-1.86851 0.15198,-1.42149 0.270747,-38.78473 0.115779,-39.05514 -0.08608,-0.15021 -0.801821,-1.66609 -1.964885,-1.61711 -0.271052,-0.0328 -5.78631,-0.0822 -13.685608,-0.1097 -13.285862,-0.0462 -18.998714,0.0123 -19.481534,0.19975 -0.0881,0.0342 -0.181458,0.13195 -0.207472,0.21721 -0.235001,0.77035 -0.268646,4.88642 -0.334918,40.9787 -0.04917,26.77894 -0.09969,38.00893 -0.173962,38.6726 -0.391627,3.49945 -1.001517,5.15783 -2.482922,6.75145 -1.704036,1.83311 -3.808583,2.68483 -7.494188,3.0329 -1.29975,0.12275 -37.628671,0.19669 -41.356119,0.0842 z"
       id="path-e-p"
       inkscape:connector-curvature="0"
       sodipodi:nodetypes="ccssssscscccscscccccsscssssscssccccssccccsccscsccc" />
    <path
       style="fill:#225500;fill-opacity:1;stroke:none;stroke-width:10.00011921;stroke-linejoin:round;stroke-miterlimit:4;stroke-dasharray:none;stroke-opacity:1"
       d="m 0.18377254,228.90855 c 0.14857415,-19.82197 0.0868827,-21.72706 0.39193517,-23.47736 0.80824059,-4.63744 3.54326009,-7.26476 8.29328919,-7.96671 1.9148161,-0.28297 5.1242981,-0.33817 23.0581801,-0.39658 l 18.07258,-0.0588 -4.722719,4.94469 4.722719,4.94469 -19.194809,0.0601 c -10.557148,0.0331 -19.476092,0.0918 -19.819878,0.13062 -0.343786,0.0387 -0.659414,0.10466 -0.701395,0.14649 -0.164402,0.1638 -0.198914,3.88326 -0.207596,22.37229 l -0.009,19.18755 c 0,0 -4.0596361,0.55526 -5.7641938,1.58537 -1.8039746,1.09018 -4.31464754,4.6162 -4.31464754,4.6162 z"
       id="path-e-top"
       inkscape:connector-curvature="0"
       sodipodi:nodetypes="sssscccsssscscs" />
  </g>
</svg>
