<?xml version="1.0" encoding="UTF-8" standalone="no"?>
<!-- Created with Inkscape (http://www.inkscape.org/) -->

<svg
   xmlns:dc="http://purl.org/dc/elements/1.1/"
   xmlns:cc="http://creativecommons.org/ns#"
   xmlns:rdf="http://www.w3.org/1999/02/22-rdf-syntax-ns#"
   xmlns:svg="http://www.w3.org/2000/svg"
   xmlns="http://www.w3.org/2000/svg"
   xmlns:sodipodi="http://sodipodi.sourceforge.net/DTD/sodipodi-0.dtd"
   xmlns:inkscape="http://www.inkscape.org/namespaces/inkscape"
   width="100"
   height="90"
   viewBox="0 0 26.458333 23.812501"
   version="1.1"
   id="svg8"
   inkscape:version="0.92.2 (5c3e80d, 2017-08-06)"
   sodipodi:docname="easy-pipe.svg">
  <defs
     id="defs2">
    <inkscape:path-effect
       effect="bspline"
       id="path-effect831"
       is_visible="true"
       weight="33.333333"
       steps="2"
       helper_size="0"
       apply_no_weight="true"
       apply_with_weight="true"
       only_selected="false" />
    <inkscape:path-effect
       effect="bspline"
       id="path-effect22"
       is_visible="true"
       weight="33.333333"
       steps="2"
       helper_size="0"
       apply_no_weight="true"
       apply_with_weight="true"
       only_selected="false" />
    <inkscape:path-effect
       effect="bspline"
       id="path-effect18"
       is_visible="true"
       weight="33.333333"
       steps="2"
       helper_size="0"
       apply_no_weight="true"
       apply_with_weight="true"
       only_selected="false" />
    <inkscape:path-effect
       effect="bspline"
       id="path-effect14"
       is_visible="true"
       weight="33.333333"
       steps="2"
       helper_size="0"
       apply_no_weight="true"
       apply_with_weight="true"
       only_selected="false" />
  </defs>
  <sodipodi:namedview
     id="base"
     pagecolor="#ffffff"
     bordercolor="#666666"
     borderopacity="1.0"
     inkscape:pageopacity="0.0"
     inkscape:pageshadow="2"
     inkscape:zoom="16"
     inkscape:cx="43.050111"
     inkscape:cy="77.697961"
     inkscape:document-units="mm"
     inkscape:current-layer="layer1"
     showgrid="true"
     showguides="false"
     units="px"
     inkscape:window-width="3738"
     inkscape:window-height="2049"
     inkscape:window-x="102"
     inkscape:window-y="55"
     inkscape:window-maximized="1">
    <inkscape:grid
       type="xygrid"
       id="grid10" />
  </sodipodi:namedview>
  <metadata
     id="metadata5">
    <rdf:RDF>
      <cc:Work
         rdf:about="">
        <dc:format>image/svg+xml</dc:format>
        <dc:type
           rdf:resource="http://purl.org/dc/dcmitype/StillImage" />
        <dc:title></dc:title>
      </cc:Work>
    </rdf:RDF>
  </metadata>
  <g
     inkscape:label="Layer 1"
     inkscape:groupmode="layer"
     id="layer1"
     transform="translate(0,-273.18748)">
    <path
       style="fill:#112b00;fill-opacity:1;stroke:none;stroke-width:2.64583325;stroke-linecap:butt;stroke-linejoin:round;stroke-miterlimit:4;stroke-dasharray:none;stroke-opacity:1;paint-order:normal"
       d="m 1.3251512,278.48382 c -0.00223,-2.64806 1.3205773,-3.97026 3.9305044,-3.96748 0.1493596,1.6e-4 6.3860114,-0.006 6.3860114,-0.006 l -1.322917,1.32291 1.322917,1.32292 c 0,0 -6.2073702,0.0111 -6.3756226,0.0101 -0.7950763,-0.002 -1.2975041,0.52054 -1.2975041,1.31386 -0.010408,0.18631 0,4.75993 0,4.75993 l -1.3228118,1.32221 -1.3228118,-1.32221 c 0,0 0.00235,-4.61946 0.00224,-4.75627 z"
       id="path4541"
       inkscape:connector-curvature="0"
       sodipodi:nodetypes="cscccsccccsc" />
    <path
       style="fill:#225500;fill-opacity:1;stroke:none;stroke-width:2.64583325;stroke-linecap:butt;stroke-linejoin:round;stroke-miterlimit:4;stroke-dasharray:none;stroke-opacity:1;paint-order:normal"
       d="m 5.2913514,295.66879 c -2.6456236,0 -3.9684355,-1.3222 -3.9456164,-3.96322 0.0018,-0.2087 -0.00421,-3.01859 -0.00877,-3.45705 -0.027338,-2.62994 1.3131903,-3.94919 3.9581154,-3.96154 0.5765435,-0.003 6.3457666,0.0109 6.3457666,0.0109 l -1.322812,1.32221 1.322812,1.3222 c 0,0 -6.1406779,-0.01 -6.3494962,0 -0.7936871,0 -1.2977146,0.46838 -1.3025289,1.24723 -0.00188,0.30404 -0.020283,3.24825 -0.020283,3.5127 0,0.79332 0.5291247,1.32219 1.3140468,1.32981 0.2734208,0.003 5.4537963,0.0145 5.8291373,-0.008 0.793687,0 1.347911,-0.58939 1.347911,-1.38271 0.0094,-0.11936 -0.06275,-12.57353 0,-13.22201 0,-2.64441 1.297713,-3.90611 3.942737,-3.90834 0.265171,-2.2e-4 4.186599,0.001 4.766887,0.001 2.641459,10e-4 3.964271,1.32321 3.966118,3.97179 3.6e-4,0.51673 -0.0018,4.22687 -0.0018,4.49132 0,2.6444 -1.322812,3.9666 -3.961173,3.99458 -0.442682,0.005 -3.975698,-0.028 -3.975698,-0.028 l -1.322858,-1.3216 1.322812,-1.32221 h 3.968436 c 0.793687,0 1.322811,-0.52887 1.322811,-1.3222 0.03103,-0.3144 0.03105,-4.18383 0,-4.49549 0,-0.79332 -0.529124,-1.3222 -1.32476,-1.31413 -0.216727,0.002 -4.34245,-0.0152 -4.757388,-0.0204 -0.789092,-0.01 -1.3005,0.48065 -1.3005,1.27397 -0.0137,0.14949 0.01346,12.97151 0,13.22201 0,2.64441 -1.34791,4.02711 -3.993534,4.02711 -0.587399,0.0186 -5.8203729,0 -5.8203729,0 z"
       id="path4543"
       inkscape:connector-curvature="0"
       sodipodi:nodetypes="csssccccscscccssscsccccccssccccc" />
  </g>
</svg>
