<svg xmlns="http://www.w3.org/2000/svg" {% if include.class %} class="{{ include.class }}"{% endif %} viewbox="0 0 512 464" focusable="false">
    <title>sonarcloud</title>
    <path d="M 478.00083,208.50403 A 151.21244,151.32027 0 0 0 405.947,158.18599 v -1.83086 C 405.947,70.21335 338.6195,2e-5 255.61884,2e-5 172.5572,2e-5 105.19921,70.06078 105.19921,156.38566 v 2.13599 C 44.397113,178.44747 0,237.70618 0,307.61437 0,393.75616 67.388483,464.00001 150.38914,464.00001 a 147.33989,147.44496 0 0 0 105.6566,-45.00855 146.8825,146.98724 0 0 0 105.53463,45.00855 C 444.42856,464.00001 512,393.93924 512,307.61437 c 0,-36.00684 -12.19701,-71.2203 -33.99917,-99.11034 z M 361.58037,424.45351 c -61.93032,0 -112.36496,-52.42351 -112.36496,-116.86965 a 19.423739,19.43759 0 0 0 -18.99684,-19.71222 19.332261,19.346047 0 0 0 -19.02734,19.74273 c 0,29.20216 7.83658,56.60398 21.2228,80.00842 a 109.98654,110.06497 0 0 1 -82.02489,37.01381 c -61.960817,0 -112.425947,-52.45403 -112.425947,-116.86965 0,-64.38511 50.46513,-116.83915 112.425947,-116.83915 13.41671,0 26.46751,2.50217 38.96944,7.14035 0.15247,0 0.27444,0.15257 0.4269,0.15257 4.32994,1.5257 10.42844,4.48559 12.31898,6.13337 a 18.295516,18.308563 0 0 0 26.65047,-2.136 20.094575,20.108904 0 0 0 -2.07349,-27.76799 c -8.29397,-7.29291 -21.2228,-12.26673 -24.39403,-13.42628 A 145.35787,145.46152 0 0 0 150.5416,151.5644 c -2.40891,0 -4.78733,0 -7.19624,0.15257 2.56137,-62.24911 51.89828,-112.01788 112.42594,-112.01788 61.93033,0 112.36496,52.42351 112.36496,116.86965 a 118.79888,118.8836 0 0 1 -47.26341,95.26555 20.216545,20.230961 0 0 0 -4.4824,27.40181 c 3.6591,5.30948 9.60514,8.29988 15.52069,8.29988 3.81157,0 7.62313,-1.15953 11.0078,-3.66171 a 157.4634,157.57569 0 0 0 57.78334,-85.80612 c 43.42136,16.75233 73.57847,60.38773 73.57847,109.6988 -0.15247,64.26305 -50.5871,116.68656 -112.70038,116.68656 z"
          fill="currentColor"/>
</svg>
