<svg xmlns="http://www.w3.org/2000/svg" {% if include.class %} class="{{ include.class }}"{% endif %} viewbox="0 0 455 512" focusable="false">
    <title>github</title>
    <path d="m 139.26012,512.00001 c 21.02784,-2.50311 22.68325,-7.16523 22.68325,-16.02456 0,-7.91508 -0.27663,-28.88311 -0.41484,-56.65532 -92.337531,20.10708 -111.811938,-44.71327 -111.811938,-44.71327 -15.10373,-38.46453 -36.92945,-48.74024 -36.92945,-48.74024 -30.069147,-20.66252 2.323653,-20.24595 2.323653,-20.24595 33.333322,2.33288 50.84369,34.32646 50.84369,34.32646 29.598873,50.96203 77.703975,36.24274 96.680465,27.71668 2.98756,-21.55124 11.53527,-36.24274 21.02351,-44.57442 -73.7206,-8.33166 -151.203273,-36.99258 -151.203273,-164.68923 0,-36.3816 12.863066,-66.09787 34.163198,-89.42652 -3.734439,-8.41499 -14.937753,-42.29709 2.904564,-88.20456 0,0 27.80081,-8.94265 91.286261,34.15982 26.55602,-7.41518 54.77178,-11.08111 82.98753,-11.24774 28.21576,0.16664 56.43152,3.83256 82.98754,11.24774 63.07051,-43.10247 90.87134,-34.15982 90.87134,-34.15982 17.84231,45.90747 6.639,79.78957 3.3195,88.20456 C 442.13693,112.30229 455,142.01856 455,178.40016 c 0,128.02992 -77.59332,156.21872 -151.45223,164.41152 11.61826,9.99799 22.40663,30.43835 22.40663,61.65431 0,44.60219 -0.41485,80.42834 -0.41485,91.25951 0,8.74824 0.62244,13.84706 22.82156,15.83015"
          fill="currentColor"/>
</svg>



